<?xml version='1.0' encoding='ascii'?>
<svg xmlns="http://www.w3.org/2000/svg" height="16" version="1.1" width="16">
    <g id="RenderLayer_LineSet" inkscape:groupmode="lineset" inkscape:label="RenderLayer_LineSet" xmlns:inkscape="http://www.inkscape.org/namespaces/inkscape">
        <g id="fills" inkscape:groupmode="layer" inkscape:label="fills" xmlns:inkscape="http://www.inkscape.org/namespaces/inkscape">
            <path d=" M 12.690, 11.391 12.690, 11.391 12.690, 11.391  z" fill="rgb(252, 153, 153)" fill-opacity="1.0" fill_rule="evenodd" stroke="none" />
            <path d=" M 12.690, 11.391 12.690, 11.391 12.690, 11.391  z" fill="rgb(252, 153, 153)" fill-opacity="1.0" fill_rule="evenodd" stroke="none" />
            <path d=" M 10.683, 14.788 10.953, 14.652 11.255, 14.500 11.577, 14.337 11.910, 14.169 12.243, 14.002 12.565, 13.839 13.136, 13.551 13.409, 13.391 13.671, 13.194 13.919, 12.964 14.151, 12.706 14.364, 12.423 14.557, 12.119 14.726, 11.798 14.870, 11.465 14.986, 11.123 15.072, 10.777 15.125, 10.431 15.143, 10.088 15.143, 10.040 15.143, 9.901 15.143, 9.686 15.143, 9.408 15.143, 9.078 15.143, 8.710 15.143, 8.316 15.143, 7.910 15.143, 7.504 15.143, 7.110 15.143, 6.742 15.143, 6.412 15.125, 6.088 15.072, 5.796 14.986, 5.536 14.870, 5.311 14.726, 5.123 14.557, 4.974 14.364, 4.864 14.151, 4.796 13.919, 4.771 13.671, 4.791 13.409, 4.858 13.136, 4.974 13.077, 5.004 12.913, 5.086 12.666, 5.211 12.356, 5.367 12.004, 5.545 11.631, 5.733 11.258, 5.921 10.906, 6.098 10.596, 6.254 10.349, 6.379 10.185, 6.462 10.126, 6.492 9.853, 6.652 9.591, 6.848 9.343, 7.078 9.111, 7.337 8.898, 7.620 8.705, 7.924 8.536, 8.245 8.392, 8.578 8.276, 8.919 8.190, 9.265 8.137, 9.612 8.119, 9.954 8.119, 10.003 8.119, 10.141 8.119, 10.356 8.119, 10.635 8.119, 10.965 8.119, 11.333 8.119, 11.726 8.119, 12.133 8.119, 12.539 8.119, 12.932 8.119, 13.300 8.119, 13.630 8.137, 13.954 8.190, 14.247 8.276, 14.507 8.392, 14.731 8.536, 14.919 8.705, 15.069 8.898, 15.179 9.111, 15.247 9.343, 15.272 9.591, 15.251 9.853, 15.184 10.126, 15.069  z M 9.556, 9.848 9.624, 9.808 9.692, 9.779 9.758, 9.762 9.820, 9.757 9.878, 9.763 9.931, 9.780 9.979, 9.808 10.021, 9.845 10.057, 9.892 10.086, 9.948 10.108, 10.013 10.121, 10.087 10.126, 10.168 10.126, 10.184 10.126, 10.230 10.126, 10.302 10.126, 10.395 10.126, 10.504 10.126, 10.627 10.126, 10.758 10.126, 10.894 10.126, 11.029 10.126, 11.160 10.126, 11.283 10.126, 11.393 10.121, 11.479 10.108, 11.565 10.086, 11.652 10.057, 11.737 10.021, 11.820 9.979, 11.900 9.931, 11.976 9.878, 12.047 9.820, 12.112 9.758, 12.169 9.692, 12.219 9.624, 12.259 9.556, 12.287 9.490, 12.304 9.428, 12.309 9.370, 12.303 9.317, 12.286 9.269, 12.259 9.227, 12.221 9.191, 12.174 9.162, 12.118 9.140, 12.053 9.127, 11.980 9.122, 11.899 9.122, 11.883 9.122, 11.836 9.122, 11.765 9.122, 11.672 9.122, 11.562 9.122, 11.439 9.122, 11.308 9.122, 11.173 9.122, 11.037 9.122, 10.906 9.122, 10.783 9.122, 10.674 9.127, 10.588 9.140, 10.501 9.162, 10.415 9.191, 10.329 9.227, 10.246 9.269, 10.166 9.317, 10.090 9.370, 10.019 9.428, 9.955 9.490, 9.897 9.556, 9.848  z  M 13.570, 7.824 13.638, 7.784 13.706, 7.755 13.772, 7.738 13.834, 7.733 13.892, 7.740 13.945, 7.757 13.993, 7.784 14.035, 7.822 14.071, 7.869 14.100, 7.925 14.122, 7.990 14.135, 8.063 14.140, 8.144 14.140, 8.160 14.140, 8.206 14.140, 8.278 14.140, 8.371 14.140, 8.481 14.140, 8.603 14.140, 8.734 14.140, 8.870 14.140, 9.005 14.140, 9.136 14.140, 9.259 14.140, 9.369 14.135, 9.455 14.122, 9.541 14.100, 9.628 14.071, 9.713 14.035, 9.796 13.993, 9.877 13.945, 9.953 13.892, 10.023 13.834, 10.088 13.772, 10.145 13.706, 10.195 13.638, 10.235 13.570, 10.264 13.504, 10.280 13.442, 10.285 13.384, 10.279 13.331, 10.262 13.283, 10.235 13.241, 10.197 13.205, 10.150 13.176, 10.094 13.154, 10.029 13.141, 9.956 13.136, 9.875 13.136, 9.859 13.136, 9.813 13.136, 9.741 13.136, 9.648 13.136, 9.538 13.136, 9.416 13.136, 9.284 13.136, 9.149 13.136, 9.013 13.136, 8.882 13.136, 8.760 13.136, 8.650 13.141, 8.564 13.154, 8.477 13.176, 8.391 13.205, 8.306 13.241, 8.222 13.283, 8.142 13.331, 8.066 13.384, 7.995 13.442, 7.931 13.504, 7.873 13.570, 7.824  z  M 12.690, 11.391 12.690, 11.391 12.690, 11.391 12.690, 11.391 12.716, 11.378 12.741, 11.367 12.766, 11.358 12.790, 11.350 12.815, 11.344 12.839, 11.339 12.863, 11.336 12.886, 11.335 12.910, 11.335 12.932, 11.337 12.954, 11.341 12.976, 11.346 12.996, 11.353 13.016, 11.361 13.036, 11.372 13.054, 11.383 13.071, 11.396 13.088, 11.411 13.103, 11.427 13.118, 11.445 13.131, 11.464 13.144, 11.484 13.155, 11.505 13.165, 11.528 13.175, 11.553 13.182, 11.578 13.189, 11.604 13.195, 11.631 13.199, 11.659 13.202, 11.688 13.203, 11.717 13.204, 11.748 13.203, 11.778 13.201, 11.810 13.198, 11.842 13.193, 11.875 13.188, 11.908 13.181, 11.941 13.173, 11.974 13.163, 12.007 13.153, 12.040 13.141, 12.073 13.129, 12.105 13.115, 12.138 13.100, 12.170 13.085, 12.202 13.068, 12.233 13.050, 12.264 12.953, 12.423 12.851, 12.577 12.744, 12.724 12.633, 12.864 12.518, 12.998 12.399, 13.123 12.277, 13.241 12.152, 13.351 12.024, 13.451 11.895, 13.543 11.764, 13.625 11.631, 13.697 11.499, 13.759 11.367, 13.809 11.238, 13.848 11.110, 13.876 10.985, 13.892 10.863, 13.898 10.744, 13.892 10.629, 13.875 10.518, 13.847 10.411, 13.807 10.309, 13.757 10.212, 13.695 10.195, 13.682 10.178, 13.667 10.163, 13.652 10.148, 13.634 10.135, 13.616 10.122, 13.596 10.111, 13.575 10.101, 13.553 10.091, 13.529 10.083, 13.505 10.077, 13.479 10.071, 13.453 10.066, 13.425 10.063, 13.396 10.061, 13.367 10.060, 13.338 10.061, 13.307 10.062, 13.276 10.065, 13.245 10.069, 13.213 10.074, 13.181 10.081, 13.149 10.088, 13.116 10.097, 13.083 10.107, 13.050 10.118, 13.017 10.130, 12.985 10.143, 12.953 10.157, 12.921 10.172, 12.889 10.188, 12.858 10.205, 12.828 10.223, 12.798 10.242, 12.769 10.261, 12.740 10.282, 12.712 10.303, 12.685 10.324, 12.659 10.346, 12.635 10.369, 12.611 10.392, 12.588 10.415, 12.567 10.439, 12.547 10.463, 12.528 10.488, 12.511 10.512, 12.495 10.537, 12.480 10.562, 12.467 10.579, 12.458 10.595, 12.451 10.612, 12.444 10.629, 12.438 10.645, 12.433 10.661, 12.429 10.678, 12.425 10.694, 12.422 10.710, 12.419 10.726, 12.418 10.742, 12.417 10.757, 12.416 10.772, 12.417 10.787, 12.418 10.802, 12.420 10.817, 12.423 10.831, 12.426 10.845, 12.431 10.859, 12.436 10.872, 12.441 10.885, 12.447 10.897, 12.455 10.910, 12.462 10.922, 12.471 10.970, 12.502 11.021, 12.527 11.074, 12.547 11.130, 12.561 11.188, 12.569 11.247, 12.572 11.308, 12.570 11.371, 12.561 11.434, 12.547 11.499, 12.528 11.565, 12.503 11.631, 12.472 11.697, 12.436 11.763, 12.395 11.828, 12.349 11.892, 12.299 11.954, 12.244 12.015, 12.185 12.074, 12.122 12.132, 12.056 12.188, 11.985 12.241, 11.912 12.292, 11.835 12.341, 11.755 12.364, 11.715 12.389, 11.677 12.415, 11.640 12.443, 11.604 12.471, 11.570 12.500, 11.538 12.530, 11.509 12.561, 11.481 12.593, 11.455 12.625, 11.431 12.658, 11.410 12.690, 11.391 12.690, 11.391 12.690, 11.391  z" fill="rgb(252, 153, 153)" fill-opacity="1.0" fill_rule="evenodd" stroke="none" />
            <path d=" M 3.983, 14.115 4.305, 14.278 4.638, 14.446 4.971, 14.613 5.293, 14.776 5.865, 15.064 6.138, 15.179 6.399, 15.246 6.647, 15.267 6.879, 15.242 7.092, 15.174 7.285, 15.064 7.454, 14.914 7.598, 14.726 7.714, 14.502 7.800, 14.242 7.853, 13.950 7.872, 13.625 7.872, 13.576 7.872, 13.438 7.872, 13.223 7.872, 12.945 7.872, 12.615 7.872, 12.247 7.872, 11.853 7.872, 11.447 7.872, 11.041 7.872, 10.647 7.872, 10.279 7.872, 9.949 7.853, 9.607 7.800, 9.260 7.714, 8.914 7.598, 8.573 7.454, 8.240 7.285, 7.919 7.092, 7.615 6.879, 7.332 6.647, 7.073 6.399, 6.844 6.138, 6.647 5.865, 6.487 5.805, 6.457 5.642, 6.374 5.394, 6.250 5.084, 6.093 4.732, 5.916 4.359, 5.728 3.986, 5.540 3.635, 5.362 3.324, 5.206 3.077, 5.081 2.913, 4.999 2.854, 4.969 2.581, 4.853 2.319, 4.787 2.071, 4.766 1.840, 4.791 1.626, 4.859 1.434, 4.969 1.264, 5.119 1.120, 5.307 1.004, 5.531 0.919, 5.791 0.865, 6.083 0.847, 6.408 0.847, 6.457 0.847, 6.595 0.847, 6.810 0.847, 7.088 0.847, 7.418 0.847, 7.786 0.847, 8.180 0.847, 8.586 0.847, 8.992 0.847, 9.386 0.847, 9.754 0.847, 10.084 0.865, 10.426 0.919, 10.773 1.004, 11.119 1.120, 11.460 1.264, 11.793 1.434, 12.114 1.626, 12.418 1.840, 12.701 2.071, 12.960 2.319, 13.189 2.581, 13.386 2.854, 13.546  z M 3.183, 13.712 3.412, 13.827 3.682, 13.963  z" fill="rgb(252, 153, 153)" fill-opacity="1.0" fill_rule="evenodd" stroke="none" />
            <path d=" M 10.031, 1.222 9.972, 1.192 9.681, 1.064 9.366, 0.959 9.032, 0.877 8.684, 0.819 8.327, 0.784 7.965, 0.772 7.603, 0.784 7.246, 0.819 6.898, 0.877 6.565, 0.959 6.250, 1.064 5.959, 1.192 5.919, 1.212 5.805, 1.269 5.629, 1.358 5.401, 1.473 5.131, 1.609 4.830, 1.761 4.508, 1.924 4.175, 2.091 3.842, 2.259 3.520, 2.422 3.219, 2.574 2.949, 2.710 2.694, 2.857 2.486, 3.015 2.323, 3.184 2.208, 3.359 2.138, 3.539 2.115, 3.722 2.138, 3.904 2.208, 4.084 2.324, 4.260 2.486, 4.428 2.694, 4.587 2.949, 4.733 2.989, 4.754 3.103, 4.811 3.278, 4.899 3.507, 5.014 3.777, 5.151 4.078, 5.303 4.400, 5.465 4.733, 5.633 5.066, 5.801 5.388, 5.963 5.960, 6.251 6.251, 6.380 6.566, 6.485 6.900, 6.567 7.247, 6.625 7.605, 6.660 7.967, 6.672 8.328, 6.660 8.686, 6.625 9.034, 6.567 9.367, 6.485 9.682, 6.380 9.973, 6.251 10.013, 6.231 10.127, 6.174 10.302, 6.085 10.531, 5.970 10.801, 5.834 11.102, 5.682 11.424, 5.520 11.757, 5.352 12.090, 5.184 12.412, 5.022 12.713, 4.870 12.983, 4.734 13.238, 4.587 13.446, 4.428 13.608, 4.260 13.724, 4.085 13.794, 3.905 13.817, 3.722 13.794, 3.540 13.724, 3.360 13.608, 3.184 13.446, 3.016 13.238, 2.857 12.983, 2.710 12.923, 2.680 12.760, 2.598 12.512, 2.473 12.202, 2.317 11.850, 2.139 11.477, 1.951 11.105, 1.763 10.753, 1.586 10.443, 1.430 10.195, 1.305 10.031, 1.222  z" fill="rgb(252, 153, 153)" fill-opacity="1.0" fill_rule="evenodd" stroke="none" />
        </g>
    </g>
</svg>
